<svg id="svg-source" height="0" version="1.1" 
  xmlns="http://www.w3.org/2000/svg" style="position:absolute; margin-left: -100%" 
  xmlns:xlink="http://www.w3.org/1999/xlink">
  <g id="friends" data-iconmelon="Iconmelon:73362bf38515940f9653c3adf00e3989">
    <g>
      <path opacity="0.3" fill="#F39C9E" d="M18.662,5.615l-2.703,2.081l-2.82-2.081l0.778,2.8c0,0-3.189-0.078-2.956,0
		c0.233,0.078,2.334,1.931,2.334,1.931l-1.264,3.086l3.518-0.875l1.72,3.217l0.635-3.909l2.509,0.194l-2.101-2.063l2.887-1.736
		l-3.372-0.059L18.662,5.615z"></path>
      <path fill="#4B3041" d="M12.085,14.999c-0.054-0.86,0.06-1.733-0.1-2.586c-0.147-0.817-0.534-1.581-1.079-2.205
		c0.126,0.003,0.254,0.007,0.383,0.01c-0.761-1.144-2.037-1.874-3.374-2.114C7.991,7.695,8.174,7.32,8.396,6.973
		c-0.38,0.022-0.709,0.223-0.98,0.477C7.171,6.806,6.559,6.393,5.923,6.197c0.331,0.417,0.459,0.952,0.46,1.477
		c-0.367-0.14-0.767-0.146-1.151-0.09C5.451,7.72,5.65,7.887,5.812,8.089c-1.37,0.227-2.679,0.963-3.46,2.13
		c0.13-0.004,0.26-0.008,0.391-0.011C2.055,10.989,1.637,12,1.589,13.041c-0.019,0.592-0.004,1.185-0.007,1.778
		c-0.001,0.103-0.006,0.209-0.056,0.302c-0.776,1.405-1.352,2.948-1.499,4.554c-0.068,0.919-0.036,1.904,0.433,2.726
		c0.218,0.368,0.608,0.724,1.069,0.641c0.19-0.031,0.259-0.229,0.344-0.375c0.069-0.054,0.135-0.113,0.201-0.173
		c0.027-0.13-0.046-0.253-0.096-0.367c-0.137-0.268-0.265-0.542-0.363-0.827c-0.548-1.508-0.511-3.185-0.035-4.707
		c0.002,0.722,0.006,1.445-0.01,2.167c0.009,0.798-0.031,1.612,0.202,2.386c0.016-0.015,0.03-0.021,0.043-0.019l-0.043,0.019
		c0.118,0.339,0.371,1.238,1.197,1.983c0.275,0.267,0.583,0.497,0.912,0.696c-0.042-0.221-0.07-0.443-0.089-0.667
		c0.358,0.212,0.737,0.384,1.128,0.525c0.085,0.015,0.091,0.11,0.108,0.178c0.096,0.543,0.221,1.082,0.393,1.607
		c-0.325-0.203-0.742-0.279-1.098-0.114c-0.353,0.143-0.579,0.485-0.651,0.85c0.7,0.235,1.463,0.237,2.171,0.035
		c-0.157-0.793-0.291-1.591-0.349-2.397c0.836,0.184,1.703,0.176,2.545,0.033c-0.071,0.794-0.19,1.582-0.353,2.363
		c0.708,0.205,1.472,0.2,2.172-0.034c-0.075-0.359-0.294-0.703-0.644-0.846c-0.357-0.169-0.777-0.094-1.103,0.108
		c0.179-0.559,0.314-1.132,0.409-1.711c0.465-0.153,0.917-0.348,1.339-0.597c-0.02,0.223-0.048,0.445-0.09,0.666
		c0.686-0.41,1.278-0.984,1.678-1.678c0.413-0.708,0.618-1.525,0.623-2.343c0.038-1.054-0.024-2.108,0.013-3.163L12.085,14.999z"></path>
      <g>
        <path fill="#4B3041" d="M12.105,15.28c1.404-1.229,2.355-3.006,2.464-4.881c0.016-0.135,0.005-0.295,0.111-0.397
			c0.077-0.043,0.171-0.027,0.258-0.038C15.07,9.88,15.21,9.754,15.38,9.797c0.288,0.075,0.487,0.345,0.566,0.621
			c0.14,0.495,0.045,1.023-0.12,1.5c-0.255,0.719-0.674,1.37-1.152,1.96c-0.711,0.864-1.572,1.599-2.497,2.225
			c-0.292,0.216-0.628,0.365-0.914,0.586"></path>
      </g>
      <g>
        <path fill="#4B3041" d="M31.973,19.675c-0.147-1.606-0.724-3.149-1.499-4.554c-0.051-0.093-0.056-0.2-0.057-0.302
			c-0.002-0.593,0.013-1.186-0.007-1.778c-0.047-1.04-0.466-2.051-1.154-2.832c0.132,0.003,0.262,0.007,0.392,0.011
			c-0.781-1.167-2.091-1.903-3.46-2.13c0.162-0.202,0.361-0.369,0.581-0.505c-0.386-0.055-0.784-0.05-1.152,0.09
			c0.002-0.525,0.13-1.06,0.461-1.477c-0.636,0.195-1.248,0.609-1.494,1.252c-0.271-0.254-0.6-0.454-0.979-0.477
			c0.223,0.348,0.405,0.723,0.481,1.131c-1.338,0.241-2.613,0.97-3.374,2.114c0.128-0.003,0.256-0.007,0.383-0.01
			c-0.545,0.624-0.933,1.388-1.078,2.205c-0.16,0.853-0.047,1.726-0.101,2.586l0.002,1.643c0.037,1.054-0.025,2.109,0.013,3.163
			c0.005,0.817,0.211,1.635,0.623,2.343c0.399,0.693,0.991,1.268,1.678,1.678c-0.043-0.221-0.07-0.443-0.091-0.666
			c0.423,0.249,0.874,0.443,1.34,0.597c0.095,0.579,0.229,1.152,0.408,1.711c-0.325-0.202-0.745-0.277-1.103-0.108
			c-0.349,0.143-0.569,0.486-0.644,0.846c0.7,0.234,1.465,0.239,2.173,0.034c-0.163-0.781-0.282-1.569-0.353-2.363
			c0.842,0.143,1.708,0.15,2.544-0.033c-0.058,0.807-0.191,1.604-0.349,2.397c0.709,0.202,1.472,0.2,2.171-0.035
			c-0.072-0.364-0.298-0.707-0.65-0.85c-0.356-0.165-0.773-0.089-1.098,0.114c0.172-0.525,0.297-1.064,0.393-1.607
			c0.017-0.067,0.022-0.163,0.108-0.178c0.391-0.142,0.77-0.313,1.128-0.525c-0.019,0.224-0.047,0.446-0.09,0.667
			c0.328-0.2,0.637-0.43,0.912-0.696c0.826-0.745,1.079-1.645,1.197-1.983l-0.043-0.019c0.013-0.002,0.026,0.004,0.043,0.019
			c0.232-0.773,0.193-1.588,0.202-2.386c-0.017-0.722-0.013-1.444-0.011-2.167c0.476,1.522,0.513,3.199-0.035,4.707
			c-0.098,0.285-0.226,0.56-0.362,0.827c-0.051,0.114-0.123,0.237-0.097,0.367c0.066,0.06,0.132,0.119,0.201,0.173
			c0.084,0.146,0.154,0.344,0.344,0.375c0.46,0.083,0.852-0.272,1.069-0.641C32.009,21.579,32.041,20.594,31.973,19.675z"></path>
        <g>
          <path fill="#4B3041" d="M19.895,15.28c-1.404-1.229-2.355-3.006-2.464-4.881c-0.016-0.135-0.005-0.295-0.111-0.397
				c-0.077-0.043-0.171-0.027-0.258-0.038C16.93,9.88,16.79,9.754,16.62,9.797c-0.288,0.075-0.487,0.345-0.567,0.621
				c-0.14,0.495-0.044,1.023,0.12,1.5c0.255,0.719,0.674,1.37,1.152,1.96c0.712,0.864,1.571,1.599,2.497,2.225
				c0.291,0.216,0.628,0.365,0.914,0.586"></path>
        </g>
        <g>
          <circle fill="#E9437F" cx="22.939" cy="12.2" r="0.998"></circle>
          <path fill="#4B3041" d="M23.048,11.896c-0.228-0.09-0.489,0.139-0.425,0.376c0.041,0.233,0.357,0.333,0.53,0.176
				C23.343,12.3,23.279,11.961,23.048,11.896z"></path>
        </g>
        <g>
          <circle fill="#E9437F" cx="27.524" cy="12.2" r="0.998"></circle>
          <path fill="#4B3041" d="M27.632,11.896c-0.228-0.09-0.488,0.139-0.424,0.376c0.041,0.233,0.357,0.333,0.529,0.176
				C27.928,12.3,27.864,11.961,27.632,11.896z"></path>
        </g>
        <g>
          <path fill="#E9437F" d="M28.406,14.662c-2.031,0.673-4.272,0.675-6.305,0.004c-0.081,0.898,0.152,1.87,0.823,2.506
				c0.16,0.148,0.418,0.364,0.653,0.431c0.302,0.121,0.617,0.207,0.939,0.259v-0.266c0-0.153,0.124-0.277,0.277-0.277
				c0.152,0,0.276,0.124,0.276,0.277v0.321c0.053,0.002,0.104,0.004,0.157,0.004v-0.466c0-0.153,0.123-0.277,0.276-0.277
				s0.277,0.124,0.277,0.277v0.435c0.384-0.044,0.762-0.136,1.121-0.276v0.001c0.236-0.064,0.509-0.287,0.67-0.435l-0.003-0.004
				c0.001,0.002,0.003,0.003,0.004,0.004C28.252,16.542,28.491,15.565,28.406,14.662z"></path>
          <path fill="#FFFFFF" d="M24.795,17.318c-0.153,0-0.277,0.124-0.277,0.277v0.266c0.184,0.03,0.368,0.049,0.554,0.056v-0.321
				C25.071,17.442,24.947,17.318,24.795,17.318z"></path>
          <path fill="#FFFFFF" d="M25.505,17.178c-0.153,0-0.276,0.124-0.276,0.277v0.466c0.185,0.001,0.37-0.01,0.554-0.031v-0.435
				C25.782,17.302,25.658,17.178,25.505,17.178z"></path>
        </g>
      </g>
      <path fill="#FFFFFF" d="M7.296,12.302c0.183-0.396,0.657-0.658,1.193-0.62c0.514,0.036,0.932,0.339,1.076,0.732L9.67,12.42
		c-0.144-0.44-0.605-0.783-1.174-0.823c-0.593-0.042-1.116,0.256-1.303,0.701L7.296,12.302z"></path>
      <path fill="#FFFFFF" d="M3.756,12.346c0.159-0.403,0.627-0.695,1.181-0.695c0.532,0,0.983,0.27,1.16,0.647l0.108-0.002
		c-0.18-0.425-0.679-0.73-1.268-0.73c-0.613,0-1.128,0.332-1.288,0.783L3.756,12.346z"></path>
      <g>
        <path fill="#FFFFFF" d="M5.219,16.07c-0.262,0.152-0.505,0.337-0.716,0.555c0.024,0.061,0.549,0.383,0.658,0.429
			C5.135,16.726,5.156,16.395,5.219,16.07z"></path>
        <path fill="#FFFFFF" d="M8.441,16.07c0.062,0.32,0.081,0.647,0.058,0.972c0.089-0.018,0.569-0.344,0.653-0.422l-0.015-0.018
			c0.005,0.005,0.01,0.01,0.016,0.015C8.94,16.404,8.7,16.222,8.441,16.07z"></path>
        <polygon fill="#E9437F" points="8.499,17.048 8.499,17.042 8.499,17.042 		"></polygon>
        <path fill="#E9437F" d="M8.441,16.07c0.258,0.152,0.499,0.334,0.711,0.547c0.67-0.636,0.904-1.607,0.823-2.505
			c-2.032,0.671-4.273,0.669-6.305-0.004c-0.085,0.904,0.154,1.881,0.832,2.519c0.211-0.218,0.454-0.403,0.716-0.555
			c-0.062,0.324-0.083,0.655-0.058,0.984c1.057,0.418,2.283,0.419,3.338-0.007c0-0.002,0-0.004,0-0.006l0,0
			C8.522,16.717,8.503,16.39,8.441,16.07z"></path>
      </g>
    </g>
  </g>
</svg>